<svg width="1363" height="768" viewBox="0 0 1363 768" fill="none" xmlns="http://www.w3.org/2000/svg">
<mask id="mask0_53_3" style="mask-type:luminance" maskUnits="userSpaceOnUse" x="0" y="0" width="1366" height="768">
<path d="M-3.05176e-05 0.1875H1365.33V767.812H-3.05176e-05V0.1875Z" fill="white"/>
</mask>
<g mask="url(#mask0_53_3)">
<path d="M-3.05176e-05 0.1875H1365.33V767.812H-3.05176e-05V0.1875Z" fill="white"/>
<path d="M-3.05176e-05 0.1875H1365.33V767.812H-3.05176e-05V0.1875Z" fill="#044980"/>
</g>
<mask id="mask1_53_3" style="mask-type:luminance" maskUnits="userSpaceOnUse" x="76" y="76" width="1213" height="611">
<path d="M76.7604 76.948H1288.57V686.859H76.7604V76.948Z" fill="white"/>
</mask>
<g mask="url(#mask1_53_3)">
<mask id="mask2_53_3" style="mask-type:luminance" maskUnits="userSpaceOnUse" x="76" y="76" width="1213" height="611">
<path d="M112.745 76.948H1252.59C1272.46 76.948 1288.57 93.0574 1288.57 112.932V650.875C1288.57 670.745 1272.46 686.859 1252.59 686.859H112.745C92.875 686.859 76.7604 670.745 76.7604 650.875V112.932C76.7604 93.0574 92.875 76.948 112.745 76.948Z" fill="white"/>
</mask>
<g mask="url(#mask2_53_3)">
<path d="M76.7604 76.948H1288.57V686.859H76.7604V76.948Z" fill="white"/>
</g>
</g>
</svg>
