<svg width="99" height="128" viewBox="0 0 99 128" fill="none" xmlns="http://www.w3.org/2000/svg">
<mask id="mask0_56_3" style="mask-type:luminance" maskUnits="userSpaceOnUse" x="0" y="0" width="99" height="128">
<path d="M0.40625 0.244873H99V128H0.40625V0.244873Z" fill="white"/>
</mask>
<g mask="url(#mask0_56_3)">
<path d="M88.0677 0.244873H11.1406C5.53648 0.244873 0.979187 4.80216 0.979187 10.4011V117.818C0.979187 123.422 5.53648 127.979 11.1406 127.979H88.0677C93.6719 127.979 98.2292 123.422 98.2292 117.818V10.4011C98.2292 4.80216 93.6719 0.244873 88.0677 0.244873ZM95.3281 117.818C95.3281 121.823 92.0729 125.078 88.0677 125.078H11.1406C7.13544 125.078 3.88023 121.823 3.88023 117.818V10.4063C3.88023 6.40633 7.13544 3.14591 11.1406 3.14591H88.0677C92.0729 3.14591 95.3281 6.40633 95.3281 10.4063V117.818Z" fill="white"/>
</g>
<path d="M82.8594 62.6562H34.6667C33.8646 62.6562 33.2136 63.3073 33.2136 64.1094C33.2136 64.9115 33.8646 65.5625 34.6667 65.5625H82.8594C83.6615 65.5625 84.3125 64.9115 84.3125 64.1094C84.3125 63.3073 83.6615 62.6562 82.8594 62.6562Z" fill="white"/>
<path d="M82.8594 43.1562H34.6667C33.8646 43.1562 33.2136 43.8073 33.2136 44.6094C33.2136 45.4115 33.8646 46.0625 34.6667 46.0625H82.8594C83.6615 46.0625 84.3125 45.4115 84.3125 44.6094C84.3125 43.8073 83.6615 43.1562 82.8594 43.1562Z" fill="white"/>
<path d="M82.8594 82.1614H34.6667C33.8646 82.1614 33.2136 82.8124 33.2136 83.6145C33.2136 84.4114 33.8646 85.0624 34.6667 85.0624H82.8594C83.6615 85.0624 84.3125 84.4114 84.3125 83.6145C84.3125 82.8124 83.6615 82.1614 82.8594 82.1614Z" fill="white"/>
<path d="M82.8594 23.6562H34.6667C33.8646 23.6562 33.2136 24.3073 33.2136 25.1094C33.2136 25.9115 33.8646 26.5625 34.6667 26.5625H82.8594C83.6615 26.5625 84.3125 25.9115 84.3125 25.1094C84.3125 24.3073 83.6615 23.6562 82.8594 23.6562Z" fill="white"/>
<path d="M82.8594 101.661H34.6667C33.8646 101.661 33.2136 102.312 33.2136 103.115C33.2136 103.911 33.8646 104.562 34.6667 104.562H82.8594C83.6615 104.562 84.3125 103.911 84.3125 103.115C84.3125 102.312 83.6615 101.661 82.8594 101.661Z" fill="white"/>
<path d="M19.776 32.8281C24.0313 32.8281 27.4948 29.3645 27.4948 25.1093C27.4948 23.8229 27.1458 22.6197 26.5833 21.552C28.8802 19.2812 31.3802 17.2239 34.1042 15.427C34.7708 14.9895 34.9531 14.0885 34.5156 13.4166C34.0729 12.7447 33.1719 12.5677 32.5052 13.0052C29.7135 14.8489 27.151 16.9635 24.7813 19.2812C23.4323 18.1197 21.6927 17.3958 19.776 17.3958C17.9583 17.3958 16.3073 18.0572 14.9844 19.1145C14.4635 18.6249 13.6719 18.5624 13.099 19.0208C12.474 19.5208 12.375 20.4322 12.8802 21.0624L13.0938 21.3281C12.4583 22.4531 12.0625 23.7291 12.0625 25.1145C12.0573 29.3645 15.5208 32.8281 19.776 32.8281ZM24.5938 25.1093C24.5938 27.7656 22.4323 29.9218 19.776 29.9218C17.125 29.9218 14.9635 27.7656 14.9635 25.1093C14.9635 24.6822 15.0365 24.276 15.1458 23.8802L18.651 28.2447C18.9271 28.5885 19.3385 28.7864 19.7813 28.7864C19.7969 28.7864 19.8125 28.7864 19.8281 28.7864C20.2813 28.7708 20.7083 28.5468 20.9688 28.1718C22.0365 26.6614 23.2031 25.2447 24.4167 23.8749C24.5156 24.2656 24.5938 24.677 24.5938 25.1093ZM22.7448 21.3489C21.6927 22.5052 20.6771 23.6979 19.724 24.9479L16.8177 21.3385C17.6406 20.6927 18.6563 20.2916 19.776 20.2916C20.901 20.2968 21.9271 20.6979 22.7448 21.3489Z" fill="white"/>
<path d="M19.7761 56.3958C15.5209 56.3958 12.0573 59.8541 12.0573 64.1145C12.0573 68.3697 15.5209 71.8333 19.7761 71.8333C24.0313 71.8333 27.4948 68.3697 27.4948 64.1145C27.4948 59.8541 24.0313 56.3958 19.7761 56.3958ZM19.7761 68.927C17.1198 68.927 14.9636 66.7655 14.9636 64.1093C14.9636 61.453 17.1198 59.2916 19.7761 59.2916C22.4323 59.2916 24.5938 61.453 24.5938 64.1093C24.5938 66.7655 22.4323 68.927 19.7761 68.927Z" fill="white"/>
<path d="M19.7761 75.8958C15.5209 75.8958 12.0573 79.3541 12.0573 83.6145C12.0573 87.8697 15.5209 91.3333 19.7761 91.3333C24.0313 91.3333 27.4948 87.8697 27.4948 83.6145C27.4948 79.3541 24.0313 75.8958 19.7761 75.8958ZM19.7761 88.427C17.1198 88.427 14.9636 86.2655 14.9636 83.6145C14.9636 80.953 17.1198 78.7916 19.7761 78.7916C22.4323 78.7916 24.5938 80.953 24.5938 83.6145C24.5938 86.2655 22.4323 88.427 19.7761 88.427Z" fill="white"/>
<path d="M19.7761 95.3906C15.5209 95.3906 12.0573 98.8542 12.0573 103.109C12.0573 107.37 15.5209 110.833 19.7761 110.833C24.0261 110.833 27.4948 107.37 27.4948 103.109C27.4948 98.8594 24.0313 95.3906 19.7761 95.3906ZM19.7761 107.932C17.1198 107.932 14.9636 105.771 14.9636 103.115C14.9636 100.458 17.1198 98.2969 19.7761 98.2969C22.4323 98.2969 24.5938 100.458 24.5938 103.115C24.5938 105.771 22.4323 107.932 19.7761 107.932Z" fill="white"/>
<path d="M34.1042 34.9271C34.7708 34.4844 34.9531 33.5886 34.5156 32.9167C34.0729 32.2448 33.1719 32.0625 32.5052 32.5053C29.7135 34.3542 27.151 36.4688 24.7812 38.7813C23.4323 37.6198 21.6927 36.8959 19.776 36.8959C17.9583 36.8959 16.3021 37.5573 14.9844 38.6146C14.4635 38.1303 13.6719 38.0678 13.099 38.5209C12.474 39.0261 12.375 39.9375 12.8802 40.5625L13.0938 40.8334C12.4583 41.9584 12.0625 43.2344 12.0625 44.6146C12.0625 48.8698 15.526 52.3334 19.7812 52.3334C24.0365 52.3334 27.5 48.8698 27.5 44.6146C27.5 43.323 27.151 42.125 26.5938 41.0573C28.8802 38.7813 31.3802 36.724 34.1042 34.9271ZM22.75 40.849C21.6927 42.0053 20.6771 43.198 19.724 44.4532L16.8229 40.8386C17.6406 40.1928 18.6615 39.7917 19.7812 39.7917C20.901 39.7917 21.9271 40.198 22.75 40.849ZM24.5938 44.6094C24.5938 47.2657 22.4323 49.4271 19.776 49.4271C17.125 49.4271 14.9635 47.2657 14.9635 44.6094C14.9635 44.1823 15.0365 43.7761 15.1458 43.3803L18.651 47.7448C18.9271 48.0886 19.3385 48.2865 19.7812 48.2865C19.7969 48.2865 19.8125 48.2865 19.8281 48.2865C20.2813 48.2709 20.7083 48.0417 20.9688 47.6719C22.0365 46.1615 23.2031 44.7448 24.4167 43.3698C24.5156 43.7657 24.5938 44.1823 24.5938 44.6094Z" fill="white"/>
</svg>
