<svg width="130" height="117" viewBox="0 0 130 117" fill="none" xmlns="http://www.w3.org/2000/svg">
<path d="M87.3489 12.6041C87.3489 13.2083 87.5521 13.7135 87.8541 14.1145C88.1562 14.4166 88.4583 14.7187 89.0625 14.9218V10.4895C88.5573 10.5937 88.2552 10.7916 87.9531 11.0937C87.5521 11.4999 87.3489 11.9999 87.3489 12.6041Z" fill="white"/>
<path d="M91.0729 18.4426V23.3801C91.5781 23.276 92.0833 23.078 92.3854 22.6718C92.7864 22.2708 93.0885 21.6666 93.0885 20.8593C93.0885 20.2551 92.8854 19.7551 92.4844 19.3489C92.2812 19.0468 91.7812 18.7447 91.0729 18.4426Z" fill="white"/>
<mask id="mask0_56_2" style="mask-type:luminance" maskUnits="userSpaceOnUse" x="73" y="0" width="34" height="34">
<path d="M73.6667 0.927002H107V33.6666H73.6667V0.927002Z" fill="white"/>
</mask>
<g mask="url(#mask0_56_2)">
<path d="M90.0677 0.927002C81.2083 0.927002 73.9635 8.177 73.9635 17.0364C73.9635 25.8958 81.2083 33.1405 90.0677 33.1405C98.9271 33.1405 106.177 25.8958 106.177 17.0364C106.177 8.177 98.9271 0.927002 90.0677 0.927002ZM93.7917 23.4791C93.0885 24.1822 92.1823 24.5833 91.0729 24.6874V25.9947C91.0729 26.5989 90.5729 27.1041 90.0677 27.1041C89.4635 27.1041 89.0625 26.5989 89.0625 25.9947V24.6874C87.9531 24.5833 86.9479 24.2812 86.2448 23.677C85.4375 23.078 85.0364 22.2708 85.0364 21.4635C85.0364 20.9635 85.1354 20.4583 85.4375 20.1562C85.7396 19.8541 86.0417 19.651 86.5469 19.651C86.9479 19.651 87.25 19.7551 87.5521 20.0572C87.8542 20.3593 87.9531 20.6614 87.9531 21.0624C87.9531 21.3645 87.8542 21.5676 87.7552 21.8697C87.5521 22.1718 87.5521 22.3697 87.5521 22.3697C87.5521 22.5728 87.7552 22.8749 88.1562 22.9739C88.4583 23.078 88.7604 23.177 89.1614 23.276V17.3385C87.8542 16.7343 86.9479 16.1301 86.4427 15.526C85.8385 14.9218 85.5364 14.1145 85.5364 13.2083C85.5364 12.1041 85.9427 11.1978 86.6458 10.4895C87.25 9.89054 88.1562 9.48429 89.1614 9.28638V7.97388C89.1614 7.36971 89.6667 6.86971 90.1667 6.86971C90.7708 6.86971 91.1771 7.36971 91.1771 7.97388V9.18221C92.1823 9.28638 92.9896 9.58846 93.5937 10.0885C94.2969 10.6926 94.6979 11.3958 94.6979 12.302C94.6979 12.8072 94.5989 13.2083 94.2969 13.5103C94.0937 13.8124 93.6927 13.9166 93.2917 13.9166C92.8854 13.9166 92.5833 13.8124 92.2812 13.5103C92.0833 13.2083 91.8802 12.9062 91.8802 12.5051C91.8802 12.302 91.9792 11.9999 92.0833 11.6978C92.1823 11.3958 92.2812 11.1978 92.2812 11.0937C92.2812 10.8958 92.0833 10.6926 91.7812 10.5937C91.5781 10.4895 91.375 10.3905 91.0729 10.3905V15.6249C92.3854 16.1301 93.2917 16.7343 93.9948 17.4374C94.6979 18.2447 95.1042 19.151 95.1042 20.2551C95.1042 21.6666 94.6979 22.6718 93.7917 23.4791Z" fill="white"/>
</g>
<mask id="mask1_56_2" style="mask-type:luminance" maskUnits="userSpaceOnUse" x="0" y="0" width="35" height="34">
<path d="M0.333313 0.927002H35V33.6666H0.333313V0.927002Z" fill="white"/>
</mask>
<g mask="url(#mask1_56_2)">
<path d="M17.5885 0.927002C8.72916 0.927002 1.47916 8.177 1.47916 17.0364C1.47916 25.8958 8.72916 33.1405 17.5885 33.1405C26.4479 33.1405 33.6927 25.8958 33.6927 17.0364C33.6927 8.177 26.4479 0.927002 17.5885 0.927002ZM21.3125 23.4791C20.6094 24.1822 19.7031 24.5833 18.5937 24.6874V25.9947C18.5937 26.5989 18.0885 27.1041 17.5885 27.1041C16.9844 27.1041 16.5833 26.5989 16.5833 25.9947V24.6874C15.4739 24.5833 14.4687 24.2812 13.7604 23.677C12.9583 23.078 12.5521 22.2708 12.5521 21.4635C12.5521 20.9635 12.6562 20.4583 12.9583 20.1562C13.2604 19.8541 13.5625 19.651 14.0625 19.651C14.4687 19.651 14.7708 19.7551 15.0729 20.0572C15.375 20.3593 15.4739 20.6614 15.4739 21.0624C15.4739 21.3645 15.375 21.5676 15.2708 21.8697C15.0729 22.1718 15.0729 22.3697 15.0729 22.3697C15.0729 22.5728 15.2708 22.8749 15.6771 22.9739C15.9792 23.078 16.2812 23.177 16.6823 23.276V17.3385C15.375 16.7343 14.4687 16.1301 13.9635 15.526C13.3594 14.9218 13.0573 14.1145 13.0573 13.2083C13.0573 12.1041 13.4583 11.1978 14.1667 10.4895C14.7708 9.89054 15.6771 9.48429 16.6823 9.28638V7.97388C16.6823 7.36971 17.1875 6.86971 17.6875 6.86971C18.2917 6.86971 18.6927 7.36971 18.6927 7.97388V9.18221C19.7031 9.28638 20.5052 9.58846 21.1094 10.0885C21.8177 10.6926 22.2187 11.3958 22.2187 12.302C22.2187 12.8072 22.1198 13.2083 21.8177 13.5103C21.6146 13.8124 21.2135 13.9166 20.8073 13.9166C20.4062 13.9166 20.1042 13.8124 19.8021 13.5103C19.5989 13.2083 19.401 12.9062 19.401 12.5051C19.401 12.302 19.5 11.9999 19.5989 11.6978C19.7031 11.3958 19.8021 11.1978 19.8021 11.0937C19.8021 10.8958 19.5989 10.6926 19.2969 10.5937C19.0989 10.4895 18.8958 10.3905 18.5937 10.3905V15.6249C19.901 16.1301 20.8073 16.7343 21.5156 17.4374C22.2187 18.2447 22.6198 19.151 22.6198 20.2551C22.6198 21.6666 22.2187 22.6718 21.3125 23.4791Z" fill="white"/>
</g>
<path d="M18.5937 18.4426V23.3801C19.0989 23.276 19.5989 23.078 19.901 22.6718C20.3073 22.2708 20.6094 21.6666 20.6094 20.8593C20.6094 20.2551 20.4062 19.7551 20.0052 19.3489C19.8021 19.0468 19.2969 18.7447 18.5937 18.4426Z" fill="white"/>
<path d="M14.8698 12.6041C14.8698 13.2083 15.0729 13.7135 15.375 14.1145C15.6771 14.4166 15.9792 14.7187 16.5833 14.9218V10.4895C16.0781 10.5937 15.776 10.7916 15.4739 11.0937C15.0729 11.4999 14.8698 11.9999 14.8698 12.6041Z" fill="white"/>
<path d="M122.885 68.375H108.49C105.875 68.375 103.656 69.7865 102.552 71.901C101.745 71.6979 97.1146 70.9948 91.0729 70.9948C82.2187 70.9948 70.2344 72.7031 61.7812 80.3542C50.9062 80.2552 45.2708 80.2552 45.2708 80.2552H45.1719C42.151 80.2552 39.6354 81.3646 37.8229 83.474C35.4062 86.2969 34.7031 91.5312 39.8333 91.5312H63.8958C65 91.5312 65.9062 92.4375 65.9062 93.5417C65.9062 94.651 65 95.5573 63.8958 95.5573C61.5781 95.5573 49.0989 95.5573 45.0677 95.5573C40.5417 95.5573 34.8021 96.2604 32.5885 91.3281C32.3854 90.9271 31.7812 87.2031 31.9844 87.2031C16.9844 83.1719 14.5677 82.4687 14.1667 82.3698C10.8437 81.4635 6.8177 81.3646 3.79686 83.375C-1.03647 86.599 -0.531262 93.8438 4.90103 96.2604L47.3854 114.682C55.2396 118.104 65.1042 116.698 73.0573 114.38L102.651 105.625C103.76 107.536 105.875 108.943 108.391 108.943H122.786C126.307 108.943 129.229 106.328 129.229 103.005V74.3177C129.328 70.9948 126.411 68.375 122.885 68.375ZM125.401 103.005C125.401 104.312 124.297 105.323 122.786 105.323H108.391C106.979 105.323 105.771 104.214 105.771 103.005V74.3177C105.771 73.0052 106.88 72 108.391 72H122.786C124.193 72 125.401 73.1094 125.401 74.3177V103.005Z" fill="white"/>
<path d="M55.8438 50.5574V58.9115C56.849 58.7136 57.5521 58.3074 58.1562 57.8074C58.9635 57.099 59.3646 56.0938 59.3646 54.7865C59.3646 53.7813 59.0625 52.8751 58.3594 52.1667C57.7552 51.6667 57.0469 51.1615 55.8438 50.5574Z" fill="white"/>
<path d="M48.8958 40.6928C48.8958 41.698 49.1979 42.6042 49.8021 43.2084C50.3073 43.7136 50.8073 44.2136 51.8125 44.6199V37.1667C51.0104 37.3699 50.4062 37.672 49.901 38.1772C49.2969 38.8803 48.8958 39.6876 48.8958 40.6928Z" fill="white"/>
<path d="M53.8281 20.0574C38.2239 20.0574 25.6406 32.6407 25.6406 48.2449C25.6406 63.8438 38.2239 76.4272 53.8281 76.4272C69.4323 76.4272 82.0156 63.8438 82.0156 48.2449C82.0156 32.6407 69.4323 20.0574 53.8281 20.0574ZM60.5729 59.2136C59.3646 60.422 57.8542 61.1303 55.8437 61.3282V63.5417C55.8437 64.5522 54.8333 65.3542 53.8281 65.3542C52.8229 65.3542 51.8125 64.5522 51.8125 63.5417V61.4324C49.8021 61.2292 48.1927 60.6251 46.9844 59.7188C45.5729 58.7136 44.7656 57.4011 44.7656 55.8959C44.7656 54.9897 44.9687 54.1824 45.4739 53.6772C45.9739 53.1772 46.5781 52.8751 47.3854 52.8751C48.0885 52.8751 48.5937 53.073 49.0989 53.5782C49.5989 53.9792 49.8021 54.5834 49.8021 55.2917C49.8021 55.6928 49.7031 56.1928 49.401 56.698C49.0989 57.2032 48.9948 57.5053 48.9948 57.6042C48.9948 58.0053 49.2969 58.4115 50.0052 58.7136C50.5052 58.9115 51.0104 59.1147 51.7135 59.2136V48.948C49.401 47.8386 47.8906 46.8334 46.9844 45.8282C45.9739 44.7188 45.4739 43.4115 45.4739 41.9011C45.4739 39.9897 46.0781 38.4792 47.3854 37.2709C48.4948 36.1615 49.901 35.4584 51.8125 35.1563V32.9428C51.8125 31.9324 52.8229 31.1303 53.8281 31.1303C54.8333 31.1303 55.8437 31.9324 55.8437 32.9428V35.0574C57.5521 35.2553 58.9635 35.7605 60.0677 36.6667C61.3802 37.672 62.0833 38.9792 62.0833 40.4897C62.0833 41.3959 61.8802 42.1042 61.3802 42.6042C60.9739 43.1095 60.2708 43.3074 59.4635 43.3074C58.7604 43.3074 58.1562 43.1095 57.7552 42.6042C57.3489 42.2032 57.0469 41.599 57.0469 40.7917C57.0469 40.3907 57.151 39.8855 57.4531 39.3855C57.7552 38.8803 57.8542 38.5782 57.8542 38.3751C57.8542 38.073 57.5521 37.7709 56.9479 37.4688C56.6458 37.2709 56.2448 37.1667 55.8437 37.0678V45.9272C58.1562 46.8334 59.7656 47.8386 60.875 49.047C62.1823 50.3542 62.8906 51.9688 62.8906 53.8803C62.8906 56.0938 62.0833 57.8074 60.5729 59.2136Z" fill="white"/>
</svg>
