<svg width="121" height="120" viewBox="0 0 121 120" fill="none" xmlns="http://www.w3.org/2000/svg">
<mask id="mask0_12_1663" style="mask-type:luminance" maskUnits="userSpaceOnUse" x="0" y="0" width="121" height="120">
<path d="M0.317688 0H120.26V119.922H0.317688V0Z" fill="white"/>
</mask>
<g mask="url(#mask0_12_1663)">
<path d="M119.995 117.87C118.578 116.948 117.214 115.963 115.839 114.979C114.036 113.333 101.271 101.641 92.5156 92.6457C83.0729 82.9478 94.0886 71.2395 94.0886 71.2395H94.0834C94.9011 70.5051 95.6979 69.7811 96.4271 69.1145C97.6198 68.0259 98.6875 67.0468 99.6198 66.2395C101.969 64.203 103.807 62.302 105.25 60.4895C107.448 61.828 113.073 65.2447 118.646 68.427C118.849 68.5468 119.068 68.5989 119.292 68.5989C119.74 68.5989 120.182 68.3645 120.427 67.9426C120.781 67.3176 120.563 66.5207 119.938 66.1614C114.536 63.078 109.073 59.7655 106.781 58.3697C109.156 54.578 109.422 51.2447 107.609 48.1926C106.328 46.0364 105.047 44.828 104.021 44.1353C105.922 41.8072 105.938 39.0728 104.042 35.8228C103.104 34.2239 101.917 32.5728 100.37 31.6614C101.203 30.3697 101.542 28.5207 101.266 26.4322C100.906 23.7291 99.4323 20.3332 96.3854 18.9009C95.9636 18.703 95.474 18.5884 94.9479 18.5103C95.8021 16.5468 96.1615 13.7499 94.4115 10.6718C90.9479 4.57802 82.5417 5.76031 76.5938 7.26031C75.0313 5.42698 70.6302 0.645728 66.9479 0.275936C64.5209 0.0363531 61.6771 1.90094 60.4011 2.85406C55.6563 0.421769 51.5677 0.994686 50.0104 1.37489C47.6146 1.95823 45.2917 3.71344 42.8281 5.5676C40.349 7.43739 37.7813 9.37489 35.4636 9.72906C33.5417 10.0259 32.1771 10.8384 31.3958 12.1405C30.9219 12.9374 30.7604 13.7759 30.7396 14.5051C28.7083 14.1666 25.5469 14.1926 23 16.7343C21.0365 18.703 18.8386 22.0989 19.1406 25.1978C19.2083 25.9374 19.4375 26.6093 19.7761 27.2239C18.2396 27.7447 16.9219 28.677 15.9636 30.1509C13.7969 33.4791 13.0209 36.0364 13.5261 38.203C13.8073 39.4218 14.4948 40.4739 15.5781 41.4009C15.474 41.4947 15.3334 41.5624 15.2344 41.6666C13.3959 43.6978 12.4584 46.8228 12.9584 49.2603C13.0938 49.9374 13.3646 50.5311 13.7084 51.0624C10.2604 53.8593 10.1198 58.4218 10.724 61.2655L1.16147 67.5676C0.562516 67.9634 0.395849 68.7707 0.791683 69.3749C1.04168 69.7551 1.45835 69.9634 1.88022 69.9634C2.13022 69.9634 2.38022 69.8905 2.59897 69.7447L12.6563 63.1145C12.8854 63.0259 13.0938 62.8853 13.2344 62.6457C13.2448 62.6353 14.2656 61.7134 18.4844 62.6197C21.3177 63.2186 23.6875 62.8436 25.5417 61.5103C26.1719 61.0572 26.6823 60.5311 27.099 59.9843C28.1927 58.552 29.875 57.6978 31.6771 57.8124C31.8646 57.8228 32.0469 57.828 32.224 57.828C33.6719 57.828 34.8334 57.4999 35.6354 57.0155C36.6563 56.4009 39.7656 52.9582 39.5104 49.4374C39.5104 49.4374 39.3906 47.9166 40.7709 47.0051H40.724C41.5365 46.5468 42.3334 45.8749 42.974 44.802C44.224 42.7082 44.5886 40.7239 44.0886 38.8228C43.6354 37.1145 43.7448 35.2343 44.8906 33.8905C46.7865 31.6822 47.1667 28.6249 47.0052 26.8489C46.9375 26.1353 46.2761 25.6093 45.5834 25.6718C44.8646 25.7395 44.3386 26.3749 44.4063 27.0936C44.4115 27.1353 44.6511 30.4739 42.6667 32.4686C40.7865 33.6197 39.0313 32.6249 39.0313 32.6249L39.0365 32.6405C38.6511 32.3645 38.2604 32.0884 37.8177 31.8176C33.1198 28.9114 27.3802 26.5624 22.7292 26.703C22.1667 26.2343 21.8073 25.6718 21.7344 24.9478C21.5417 22.9061 23.2083 20.2134 24.8438 18.578C25.4375 17.9895 26.0833 17.6093 26.7344 17.3593C26.8386 17.3593 30.8125 17.4791 32.2083 19.328L32.2031 19.3072C33.6198 21.6822 36.2761 24.177 40.6146 24.2551C40.6979 24.2603 40.7709 24.2603 40.849 24.2603C44.1719 24.2603 46.6823 22.9061 48.8959 21.7134C51.5938 20.2499 53.2292 19.4791 55.3229 20.4895C55.7604 20.703 56.2813 20.6509 56.6667 20.3645C56.7709 20.2864 67.1511 12.6561 73.9063 10.703C81.7188 8.43739 89.3386 7.02594 92.1459 11.9634L92.2188 12.0936C93.7552 14.9166 91.9531 18.3489 88.849 19.1718C84.6302 20.2916 80.4323 22.2916 79.6927 22.6509C79.0417 22.9686 78.7761 23.7499 79.0938 24.3957C79.4115 25.0468 80.1875 25.3124 80.8386 24.9947C83.9688 23.4686 88.9584 21.5311 92.375 21.0884C92.6094 21.1301 92.849 21.1249 93.0729 21.0364C93.9688 20.9739 94.75 21.0155 95.2761 21.2603C97.2292 22.1822 98.2656 24.4947 98.6042 26.3697C99.1511 29.8228 96.2344 31.1978 95.4167 31.5155L95.3386 31.5468C95.2604 31.5728 95.1979 31.5936 95.1979 31.5936V31.5989C92.2448 32.8072 87.2136 35.5259 86.9792 35.6509C86.349 35.9947 86.1094 36.7864 86.4531 37.4166C86.7969 38.0572 87.5938 38.2864 88.224 37.9426C88.2865 37.9114 94.2917 34.6666 96.8438 33.7499C98.3959 33.1926 99.7031 33.5728 101.786 37.1353C101.786 37.1353 103.141 41.6926 99.5573 44.5155C96.3334 46.6509 90.4011 50.0468 90.3334 50.0832C89.7084 50.4426 89.4948 51.2395 89.8542 51.8645C90.0886 52.2864 90.5313 52.5207 90.9844 52.5207C91.2031 52.5207 91.4271 52.4686 91.6302 52.3489C91.8281 52.2395 94.9167 50.4686 97.8542 48.6718C97.8542 48.6718 102.688 45.8957 104.724 48.5832C104.938 48.8801 105.146 49.1561 105.365 49.5207C106.875 52.0676 107.391 56.0416 97.9115 64.2707C96.9636 65.0884 95.8802 66.0832 94.6667 67.1874C94.6667 67.1874 80.9479 77.5468 71.4167 77.7134C61.8854 77.8853 55.6667 73.802 42.7813 85.7134C30.7292 96.8541 19.8646 108.864 4.69793 114.349C3.64585 114.703 2.59898 115.068 1.51043 115.385C0.822934 115.594 0.427099 116.318 0.630224 117.01C0.796891 117.578 1.31772 117.943 1.88022 117.943C2.00522 117.943 2.13022 117.927 2.25002 117.891C15.5573 113.953 26.4063 107.547 35.9792 101.896C44.7813 96.703 52.4271 92.2239 59.9948 90.7082C62.0677 91.1093 74.8073 93.578 79.8386 95.3228C90.2969 98.9634 98.6979 105.364 106.823 111.557C110.615 114.448 114.536 117.432 118.573 120.057C118.792 120.203 119.036 120.271 119.281 120.271C119.708 120.271 120.125 120.062 120.375 119.677C120.771 119.073 120.599 118.266 119.995 117.87ZM24.0052 59.4009C22.7708 60.2811 21.0886 60.5051 19.0313 60.0624C16.1927 59.4634 14.3386 59.5468 13.1406 59.8697C12.9011 57.9166 13.0209 54.6718 15.7136 52.802C15.7761 52.8332 15.8438 52.8541 15.9115 52.8749C15.974 52.8853 22.2552 54.3489 26.1094 56.1978C25.8438 57.1093 25.25 58.5103 24.0052 59.4009ZM34.2917 54.7811C33.4323 55.2968 31.0104 55.6978 27.4323 53.9374C23.6146 52.0572 17.6771 50.6093 16.6459 50.3645C16.0417 50.052 15.6719 49.5207 15.5156 48.7395C15.1823 47.1145 15.8959 44.828 17.1719 43.4166C17.724 42.802 20.6354 41.2395 34.5469 47.0207C36.7552 47.9374 36.8646 49.1718 36.9063 49.578C37.0938 51.6926 34.9115 54.3801 34.2917 54.7811ZM36.4427 34.0364C43.6823 38.5207 41.6875 41.8593 40.7292 43.4686C39.4479 45.6197 37.0156 45.2291 36.9167 45.2134C36.9167 45.2134 36.0677 44.828 35.5469 44.6093C27.2969 41.1822 21.6719 39.7707 18.2396 40.2759L18.3073 40.1666C17 39.3853 16.2917 38.5728 16.0677 37.6145C15.7396 36.2082 16.4219 34.2291 18.1459 31.5728C20.9688 27.2343 29.6094 29.8072 36.4427 34.0364ZM55.7188 17.828C52.6667 16.7186 50.1146 18.0884 47.6563 19.4166C45.5729 20.5416 43.2917 21.6822 40.6667 21.6509C35.0209 21.5416 33.6094 16.1666 33.5104 15.8124C33.5052 15.802 33.0625 14.4426 33.6406 13.4791C34 12.8749 34.7448 12.4843 35.8646 12.3124C38.8333 11.8541 41.6615 9.71864 44.3959 7.65094C46.6406 5.96344 48.7552 4.36448 50.625 3.90614C51.2656 3.7551 52.1511 3.60927 53.2292 3.60927C56.4427 3.60927 61.3177 4.92177 66.099 11.2759C61.5521 13.7239 57.2761 16.7134 55.7188 17.828ZM73.1823 8.1926C72.4375 8.40615 71.6615 8.68219 70.8698 8.99989C68.7344 9.93219 66.5313 7.69781 66.5313 7.69781L66.5417 7.73427C65.3021 6.35406 64.0521 5.22906 62.8229 4.34364C64.0781 3.53115 65.625 2.78114 66.6927 2.87489C68.6511 3.0676 71.6563 5.71864 73.7813 8.02073C73.5834 8.07802 73.3698 8.14052 73.1823 8.1926Z" fill="white"/>
</g>
</svg>
