<svg width="26" height="26" viewBox="0 0 26 26" fill="none" xmlns="http://www.w3.org/2000/svg">
<mask id="mask0_18_8259" style="mask-type:luminance" maskUnits="userSpaceOnUse" x="0" y="0" width="26" height="26">
<path d="M0.963531 0.098938H25.9531V25.0885H0.963531V0.098938Z" fill="white"/>
</mask>
<g mask="url(#mask0_18_8259)">
<path d="M13.4687 2.35419C16.8073 2.35419 17.2031 2.36461 18.5208 2.4271C19.7396 2.47919 20.4062 2.68231 20.8489 2.8594C21.4271 3.08335 21.8437 3.3594 22.2864 3.7969C22.7239 4.2344 22.9896 4.65106 23.2239 5.2344C23.3906 5.6719 23.5937 6.33335 23.6562 7.55731C23.7135 8.88023 23.7239 9.27085 23.7239 12.6094C23.7239 15.9479 23.7135 16.3438 23.6562 17.6667C23.5989 18.8854 23.3958 19.5469 23.2239 19.9896C22.9948 20.5729 22.7239 20.9896 22.2864 21.4271C21.8437 21.8646 21.4271 22.1354 20.8489 22.3646C20.4114 22.5313 19.7448 22.7344 18.5208 22.7969C17.2031 22.8594 16.8073 22.8698 13.4687 22.8698C10.1302 22.8698 9.73436 22.8594 8.41666 22.7969C7.19791 22.7396 6.53645 22.5417 6.08853 22.3646C5.51041 22.1406 5.09374 21.8646 4.65624 21.4271C4.21353 20.9896 3.94791 20.5729 3.71874 19.9896C3.54687 19.5521 3.34374 18.8906 3.28645 17.6667C3.22395 16.3438 3.21353 15.9479 3.21353 12.6094C3.21353 9.27085 3.22395 8.88023 3.28645 7.55731C3.33853 6.33856 3.54166 5.6771 3.71874 5.2344C3.9427 4.65106 4.21353 4.2344 4.65624 3.7969C5.09374 3.3594 5.51041 3.08856 6.08853 2.8594C6.53124 2.68752 7.1927 2.4844 8.41666 2.4271C9.73436 2.36461 10.1302 2.35419 13.4687 2.35419ZM13.4687 0.104187C10.0729 0.104187 9.64582 0.119813 8.31249 0.177104C6.97916 0.239605 6.0677 0.453146 5.27603 0.760437C4.45312 1.07815 3.7552 1.50523 3.05728 2.20315C2.36978 2.89585 1.9427 3.59377 1.62499 4.41669C1.3177 5.21356 1.10416 6.11981 1.04166 7.45315C0.979156 8.78648 0.963531 9.21356 0.963531 12.6042C0.963531 16.0052 0.979156 16.4271 1.04166 17.7656C1.10416 19.099 1.3177 20.0052 1.62499 20.8021C1.9427 21.625 2.36978 22.3177 3.06249 23.0156C3.76041 23.7136 4.45832 24.1406 5.28124 24.4584C6.07291 24.7656 6.98437 24.9792 8.3177 25.0365C9.64582 25.099 10.0781 25.1146 13.4739 25.1146C16.875 25.1146 17.2969 25.099 18.6354 25.0365C19.9635 24.9792 20.875 24.7656 21.6719 24.4584C22.4948 24.1406 23.1875 23.7136 23.8854 23.0156C24.5833 22.3177 25.0104 21.625 25.3281 20.8021C25.6354 20.0052 25.8489 19.099 25.9062 17.7656C25.9687 16.4323 25.9844 16.0052 25.9844 12.6042C25.9844 9.20835 25.9687 8.78648 25.9062 7.44794C25.8489 6.1146 25.6354 5.20315 25.3281 4.41148C25.0104 3.58856 24.5833 2.89065 23.8854 2.19794C23.1875 1.50002 22.4948 1.07294 21.6719 0.755229C20.875 0.447938 19.9635 0.234395 18.6354 0.171895C17.2969 0.119813 16.8698 0.104187 13.4687 0.104187Z" fill="white"/>
</g>
<path d="M13.4687 6.1875C9.92186 6.1875 7.05206 9.05729 7.05206 12.6042C7.05206 16.151 9.92706 19.0313 13.4739 19.0313C17.0208 19.0313 19.901 16.1563 19.901 12.6042C19.8958 9.05729 17.0156 6.1875 13.4687 6.1875ZM13.4687 16.776C11.1666 16.776 9.30206 14.9115 9.30206 12.6094C9.30206 10.3073 11.1666 8.44792 13.4687 8.44792C15.7708 8.44792 17.6354 10.3073 17.6354 12.6094C17.6406 14.9063 15.7708 16.776 13.4687 16.776Z" fill="white"/>
<path d="M21.6458 5.93231C21.6458 6.76044 20.9739 7.43752 20.1458 7.43752C19.3177 7.43752 18.6458 6.76044 18.6458 5.93231C18.6458 5.10939 19.3177 4.43231 20.1458 4.43231C20.9739 4.43231 21.6458 5.09898 21.6458 5.93231Z" fill="white"/>
</svg>
